# xmcd
#
# Track frame offsets:
#	150
#	14098
#	26488
#	39167
#	58877
#	71532
#	89586
#	99074
#	113465
#
# Disc length: 1719 seconds
#
# Revision: 1
# Processed by: cddbd v1.5.1PL0 Copyright (c) Steve Scherf et al.
# Submitted via: audiograbber 1.82.02
#
DISCID=6906b509
DTITLE=Boxcar Willie - My Christmas Favorites!
DYEAR=1900
DGENRE=Christmas
TTITLE0=Hee Haw Honey
TTITLE1=Blue Christmas
TTITLE2=White Christmas
TTITLE3=Silent Night
TTITLE4=Timothy The Tow Truck
TTITLE5=Santa Fe Sam and Hobo Bill
TTITLE6=Jingle Bells
TTITLE7=Silver Bells
TTITLE8=Don't It Make You Wanna Be A Kid Again
EXTD=
EXTT0=
EXTT1=
EXTT2=
EXTT3=
EXTT4=
EXTT5=
EXTT6=
EXTT7=
EXTT8=
PLAYORDER=
